<svg width="150" height="56" viewBox="0 0 150 56" fill="none" xmlns="http://www.w3.org/2000/svg">
<rect width="150" height="56" fill="#1E1E1E"/>
<g clip-path="url(#clip0_0_1)">
<rect width="1440" height="5861" transform="translate(-150 -5357)" fill="#191F2E"/>
<rect x="-150" y="-734" width="1440" height="912" fill="#191F2E"/>
<path d="M23.1925 33.5002V21.8639H27.3402C28.2417 21.8639 28.9898 22.0192 29.5845 22.3298C30.183 22.6404 30.63 23.0703 30.9254 23.6196C31.2209 24.165 31.3686 24.7957 31.3686 25.5116C31.3686 26.2237 31.219 26.8506 30.9197 27.3923C30.6243 27.9302 30.1773 28.3487 29.5788 28.648C28.9841 28.9472 28.236 29.0968 27.3345 29.0968H24.1925V27.5855H27.1754C27.7436 27.5855 28.2057 27.504 28.5618 27.3412C28.9216 27.1783 29.1849 26.9415 29.3516 26.6309C29.5182 26.3203 29.6016 25.9472 29.6016 25.5116C29.6016 25.0722 29.5163 24.6915 29.3459 24.3696C29.1792 24.0476 28.916 23.8014 28.5561 23.6309C28.2 23.4567 27.7322 23.3696 27.1527 23.3696H24.9482V33.5002H23.1925ZM28.9368 28.2502L31.8118 33.5002H29.8118L26.9936 28.2502H28.9368ZM37.0206 33.6764C36.1607 33.6764 35.4202 33.4927 34.799 33.1252C34.1816 32.754 33.7043 32.2332 33.3672 31.5627C33.0339 30.8885 32.8672 30.0987 32.8672 29.1934C32.8672 28.2995 33.0339 27.5116 33.3672 26.8298C33.7043 26.148 34.174 25.6158 34.7763 25.2332C35.3823 24.8506 36.0907 24.6593 36.9013 24.6593C37.3937 24.6593 37.871 24.7408 38.3331 24.9037C38.7952 25.0665 39.21 25.3222 39.5774 25.6707C39.9448 26.0192 40.2346 26.4718 40.4467 27.0287C40.6589 27.5817 40.7649 28.254 40.7649 29.0457V29.648H33.8274V28.3752H39.1001C39.1001 27.9283 39.0092 27.5324 38.8274 27.1877C38.6456 26.8393 38.3899 26.5646 38.0604 26.3639C37.7346 26.1631 37.352 26.0627 36.9126 26.0627C36.4354 26.0627 36.0187 26.1802 35.6626 26.415C35.3104 26.6461 35.0376 26.9491 34.8445 27.3241C34.6551 27.6953 34.5604 28.0987 34.5604 28.5343V29.5287C34.5604 30.112 34.6626 30.6082 34.8672 31.0173C35.0755 31.4264 35.3653 31.7389 35.7365 31.9548C36.1077 32.1669 36.5414 32.273 37.0376 32.273C37.3596 32.273 37.6532 32.2275 37.9183 32.1366C38.1835 32.0419 38.4126 31.9018 38.6058 31.7162C38.799 31.5305 38.9467 31.3014 39.049 31.0287L40.657 31.3184C40.5282 31.7919 40.2971 32.2067 39.9638 32.5627C39.6342 32.915 39.2195 33.1896 38.7195 33.3866C38.2232 33.5798 37.657 33.6764 37.0206 33.6764ZM45.1896 33.6934C44.6366 33.6934 44.1366 33.5912 43.6896 33.3866C43.2427 33.1783 42.8885 32.8771 42.6271 32.4832C42.3696 32.0893 42.2408 31.6063 42.2408 31.0343C42.2408 30.5419 42.3355 30.1366 42.5249 29.8184C42.7143 29.5002 42.9699 29.2484 43.2919 29.0627C43.6139 28.8771 43.9737 28.737 44.3714 28.6423C44.7692 28.5476 45.1745 28.4756 45.5874 28.4264C46.1101 28.3658 46.5343 28.3165 46.8601 28.2787C47.1858 28.237 47.4226 28.1707 47.5703 28.0798C47.718 27.9889 47.7919 27.8412 47.7919 27.6366V27.5968C47.7919 27.1006 47.6518 26.7162 47.3714 26.4434C47.0949 26.1707 46.6821 26.0343 46.1328 26.0343C45.5608 26.0343 45.1101 26.1612 44.7805 26.415C44.4548 26.665 44.2294 26.9434 44.1044 27.2502L42.5078 26.8866C42.6972 26.3563 42.9737 25.9283 43.3374 25.6025C43.7048 25.273 44.1271 25.0343 44.6044 24.8866C45.0817 24.7351 45.5836 24.6593 46.1101 24.6593C46.4586 24.6593 46.8279 24.701 47.218 24.7843C47.612 24.8639 47.9794 25.0116 48.3203 25.2275C48.665 25.4434 48.9472 25.7521 49.1669 26.1537C49.3866 26.5514 49.4964 27.0684 49.4964 27.7048V33.5002H47.8374V32.3071H47.7692C47.6593 32.5268 47.4946 32.7427 47.2749 32.9548C47.0552 33.1669 46.773 33.343 46.4283 33.4832C46.0836 33.6234 45.6707 33.6934 45.1896 33.6934ZM45.5589 32.3298C46.0286 32.3298 46.4302 32.237 46.7635 32.0514C47.1006 31.8658 47.3563 31.6234 47.5305 31.3241C47.7086 31.0211 47.7976 30.6972 47.7976 30.3525V29.2275C47.737 29.2881 47.6196 29.3449 47.4453 29.398C47.2749 29.4472 47.0798 29.4908 46.8601 29.5287C46.6404 29.5627 46.4264 29.5949 46.218 29.6252C46.0097 29.6518 45.8355 29.6745 45.6953 29.6934C45.3658 29.7351 45.0646 29.8052 44.7919 29.9037C44.523 30.0021 44.3071 30.1442 44.1442 30.3298C43.9851 30.5116 43.9055 30.754 43.9055 31.0571C43.9055 31.4775 44.0608 31.7957 44.3714 32.0116C44.6821 32.2237 45.0779 32.3298 45.5589 32.3298ZM55.0263 33.6707C54.3217 33.6707 53.6929 33.4908 53.1399 33.1309C52.5907 32.7673 52.1589 32.2502 51.8445 31.5798C51.5339 30.9055 51.3786 30.0968 51.3786 29.1537C51.3786 28.2105 51.5357 27.4037 51.8501 26.7332C52.1683 26.0627 52.6039 25.5495 53.157 25.1934C53.71 24.8374 54.3369 24.6593 55.0376 24.6593C55.5793 24.6593 56.0149 24.7502 56.3445 24.9321C56.6778 25.1101 56.9354 25.3184 57.1172 25.5571C57.3028 25.7957 57.4467 26.0059 57.549 26.1877H57.6513V21.8639H59.3501V33.5002H57.6911V32.1423H57.549C57.4467 32.3279 57.299 32.54 57.1058 32.7787C56.9164 33.0173 56.6551 33.2256 56.3217 33.4037C55.9884 33.5817 55.5566 33.6707 55.0263 33.6707ZM55.4013 32.2218C55.8899 32.2218 56.3028 32.093 56.6399 31.8355C56.9808 31.5741 57.2384 31.2124 57.4126 30.7502C57.5907 30.2881 57.6797 29.7502 57.6797 29.1366C57.6797 28.5305 57.5926 28.0002 57.4183 27.5457C57.2441 27.0912 56.9884 26.737 56.6513 26.4832C56.3142 26.2294 55.8975 26.1025 55.4013 26.1025C54.8899 26.1025 54.4638 26.2351 54.1229 26.5002C53.782 26.7654 53.5244 27.1271 53.3501 27.5855C53.1797 28.0438 53.0945 28.5608 53.0945 29.1366C53.0945 29.7199 53.1816 30.2446 53.3558 30.7105C53.5301 31.1764 53.7876 31.5457 54.1286 31.8184C54.4732 32.0874 54.8975 32.2218 55.4013 32.2218ZM66.1456 21.8639H68.2763L71.9808 30.9093H72.1172L75.8217 21.8639H77.9524V33.5002H76.282V25.0798H76.174L72.7422 33.4832H71.3558L67.924 25.0741H67.8161V33.5002H66.1456V21.8639ZM84.0447 33.6764C83.2266 33.6764 82.5125 33.4889 81.9027 33.1139C81.2929 32.7389 80.8194 32.2143 80.4822 31.54C80.1451 30.8658 79.9766 30.0779 79.9766 29.1764C79.9766 28.2711 80.1451 27.4794 80.4822 26.8014C80.8194 26.1233 81.2929 25.5968 81.9027 25.2218C82.5125 24.8468 83.2266 24.6593 84.0447 24.6593C84.8629 24.6593 85.5769 24.8468 86.1868 25.2218C86.7966 25.5968 87.2701 26.1233 87.6072 26.8014C87.9444 27.4794 88.1129 28.2711 88.1129 29.1764C88.1129 30.0779 87.9444 30.8658 87.6072 31.54C87.2701 32.2143 86.7966 32.7389 86.1868 33.1139C85.5769 33.4889 84.8629 33.6764 84.0447 33.6764ZM84.0504 32.2502C84.5807 32.2502 85.0201 32.1101 85.3686 31.8298C85.7171 31.5495 85.9747 31.1764 86.1413 30.7105C86.3118 30.2446 86.397 29.7313 86.397 29.1707C86.397 28.6139 86.3118 28.1025 86.1413 27.6366C85.9747 27.1669 85.7171 26.79 85.3686 26.5059C85.0201 26.2218 84.5807 26.0798 84.0504 26.0798C83.5163 26.0798 83.0732 26.2218 82.7209 26.5059C82.3724 26.79 82.1129 27.1669 81.9425 27.6366C81.7758 28.1025 81.6925 28.6139 81.6925 29.1707C81.6925 29.7313 81.7758 30.2446 81.9425 30.7105C82.1129 31.1764 82.3724 31.5495 82.7209 31.8298C83.0732 32.1101 83.5163 32.2502 84.0504 32.2502ZM90.0092 33.5002V24.773H91.6513V26.1593H91.7422C91.9013 25.6896 92.1816 25.3203 92.5831 25.0514C92.9884 24.7787 93.4467 24.6423 93.9581 24.6423C94.0642 24.6423 94.1892 24.6461 94.3331 24.6537C94.4808 24.6612 94.5964 24.6707 94.6797 24.6821V26.3071C94.6115 26.2881 94.4903 26.2673 94.3161 26.2446C94.1418 26.218 93.9676 26.2048 93.7933 26.2048C93.3918 26.2048 93.0339 26.29 92.7195 26.4605C92.4089 26.6271 92.1626 26.8601 91.9808 27.1593C91.799 27.4548 91.7081 27.7919 91.7081 28.1707V33.5002H90.0092ZM99.5987 33.6764C98.7389 33.6764 97.9983 33.4927 97.3771 33.1252C96.7597 32.754 96.2824 32.2332 95.9453 31.5627C95.612 30.8885 95.4453 30.0987 95.4453 29.1934C95.4453 28.2995 95.612 27.5116 95.9453 26.8298C96.2824 26.148 96.7521 25.6158 97.3544 25.2332C97.9605 24.8506 98.6688 24.6593 99.4794 24.6593C99.9718 24.6593 100.449 24.7408 100.911 24.9037C101.373 25.0665 101.788 25.3222 102.156 25.6707C102.523 26.0192 102.813 26.4718 103.025 27.0287C103.237 27.5817 103.343 28.254 103.343 29.0457V29.648H96.4055V28.3752H101.678C101.678 27.9283 101.587 27.5324 101.406 27.1877C101.224 26.8393 100.968 26.5646 100.638 26.3639C100.313 26.1631 99.9302 26.0627 99.4908 26.0627C99.0135 26.0627 98.5968 26.1802 98.2408 26.415C97.8885 26.6461 97.6158 26.9491 97.4226 27.3241C97.2332 27.6953 97.1385 28.0987 97.1385 28.5343V29.5287C97.1385 30.112 97.2408 30.6082 97.4453 31.0173C97.6536 31.4264 97.9434 31.7389 98.3146 31.9548C98.6858 32.1669 99.1196 32.273 99.6158 32.273C99.9377 32.273 100.231 32.2275 100.496 32.1366C100.762 32.0419 100.991 31.9018 101.184 31.7162C101.377 31.5305 101.525 31.3014 101.627 31.0287L103.235 31.3184C103.106 31.7919 102.875 32.2067 102.542 32.5627C102.212 32.915 101.798 33.1896 101.298 33.3866C100.801 33.5798 100.235 33.6764 99.5987 33.6764Z" fill="white"/>
<path d="M114 21.0002H118.5V22.0002H114.5V34.0002H126.5V30.0002H127.5V34.5002L127 35.0002H114L113.5 34.5002V21.5002L114 21.0002Z" fill="white"/>
<path d="M127.5 21.5002V28.0002H126.5V22.7072L119.743 29.4652L119.036 28.7572L125.793 22.0002H120.5V21.0002H127L127.5 21.5002Z" fill="white"/>
<rect x="0.5" y="0.500244" width="149" height="55" rx="27.5" stroke="white"/>
</g>
<defs>
<clipPath id="clip0_0_1">
<rect width="1440" height="5861" fill="white" transform="translate(-150 -5357)"/>
</clipPath>
</defs>
</svg>
