<svg width="54" height="70" viewBox="0 0 54 70" fill="none" xmlns="http://www.w3.org/2000/svg">
<path d="M3.83 68V43.7H9.56C11.54 43.7 13.08 43.97 14.18 44.51C15.3 45.05 16.09 45.88 16.55 47C17.03 48.12 17.27 49.54 17.27 51.26V60.14C17.27 61.9 17.03 63.37 16.55 64.55C16.09 65.71 15.31 66.58 14.21 67.16C13.13 67.72 11.64 68 9.74 68H3.83ZM8.27 64.91H9.62C10.64 64.91 11.37 64.73 11.81 64.37C12.25 64.01 12.52 63.49 12.62 62.81C12.72 62.11 12.77 61.26 12.77 60.26V50.96C12.77 49.98 12.7 49.19 12.56 48.59C12.42 47.99 12.13 47.55 11.69 47.27C11.25 46.99 10.54 46.85 9.56 46.85H8.27V64.91ZM20.5292 68V43.7H24.9692V54.38L29.7692 43.7H33.9992L29.3492 54.56L34.4792 68H30.0692L25.9892 56.93L24.9692 58.79V68H20.5292ZM42.7445 68.33C41.0245 68.33 39.6545 68.01 38.6345 67.37C37.6145 66.73 36.8845 65.81 36.4445 64.61C36.0045 63.41 35.7845 61.99 35.7845 60.35V51.26C35.7845 49.62 36.0045 48.22 36.4445 47.06C36.8845 45.88 37.6145 44.98 38.6345 44.36C39.6545 43.74 41.0245 43.43 42.7445 43.43C44.5045 43.43 45.8845 43.74 46.8845 44.36C47.9045 44.98 48.6345 45.88 49.0745 47.06C49.5345 48.22 49.7645 49.62 49.7645 51.26V60.38C49.7645 62 49.5345 63.41 49.0745 64.61C48.6345 65.79 47.9045 66.71 46.8845 67.37C45.8845 68.01 44.5045 68.33 42.7445 68.33ZM42.7445 65.06C43.4845 65.06 44.0245 64.9 44.3645 64.58C44.7245 64.26 44.9645 63.82 45.0845 63.26C45.2045 62.7 45.2645 62.09 45.2645 61.43V50.24C45.2645 49.56 45.2045 48.95 45.0845 48.41C44.9645 47.87 44.7245 47.45 44.3645 47.15C44.0245 46.83 43.4845 46.67 42.7445 46.67C42.0445 46.67 41.5145 46.83 41.1545 47.15C40.7945 47.45 40.5545 47.87 40.4345 48.41C40.3145 48.95 40.2545 49.56 40.2545 50.24V61.43C40.2545 62.09 40.3045 62.7 40.4045 63.26C40.5245 63.82 40.7645 64.26 41.1245 64.58C41.4845 64.9 42.0245 65.06 42.7445 65.06Z" fill="#F9F9F9"/>
<path d="M11.25 33.6363V19.9999C11.25 11.2135 18.3015 4.09082 27 4.09082C35.6985 4.09082 42.75 11.2135 42.75 19.9999V33.6363H11.25ZM11.25 22.2726H6.75C5.50736 22.2726 4.5 23.2901 4.5 24.5454V33.6363C4.5 34.8915 5.50736 35.909 6.75 35.909H11.25V22.2726ZM42.75 22.2726H47.25C48.4927 22.2726 49.5 23.2901 49.5 24.5454V33.6363C49.5 34.8915 48.4927 35.909 47.25 35.909H42.75V22.2726Z" stroke="url(#paint0_linear_1_514)" stroke-width="2.5" stroke-linecap="round" stroke-linejoin="round"/>
<path d="M18 29.0909H22.5L24.75 22.2727L29.25 35.9091L31.5 29.0909H36" stroke="url(#paint1_linear_1_514)" stroke-width="2.5" stroke-linecap="round" stroke-linejoin="round"/>
<defs>
<linearGradient id="paint0_linear_1_514" x1="27" y1="4.09082" x2="27" y2="38.1817" gradientUnits="userSpaceOnUse">
<stop stop-color="white"/>
<stop offset="1" stop-color="#7F1CFC"/>
</linearGradient>
<linearGradient id="paint1_linear_1_514" x1="27" y1="22.2727" x2="27" y2="35.9091" gradientUnits="userSpaceOnUse">
<stop stop-color="white"/>
<stop offset="1" stop-color="#FF1C60"/>
</linearGradient>
</defs>
</svg>
