<svg width="118" height="118" viewBox="0 0 118 118" fill="none" xmlns="http://www.w3.org/2000/svg">
<g filter="url(#filter0_b_1_478)">
<circle cx="59" cy="59" r="59" fill="#818698" fill-opacity="0.2"/>
</g>
<path d="M74.6499 11.8586L70.8234 10.4897L68.9372 15.7625L72.7638 17.1313C74.1271 17.6191 75.6266 17.2039 76.2679 15.4111C76.9092 13.6184 76.0133 12.3463 74.6499 11.8586ZM72.6584 15.8107L70.7 15.1101L71.7724 12.1122L73.7309 12.8127C74.7553 13.1792 75.3701 13.6456 74.9121 14.9261C74.454 16.2066 73.6828 16.1772 72.6584 15.8107Z" fill="white"/>
<path d="M91.9479 21.445L90.2027 20.132L85.2668 20.0525L87.0127 17.7319L85.862 16.8662L82.4952 21.3411L83.6459 22.2068L84.2904 21.3502L86.42 21.3806L86.9893 24.7223L88.5811 25.9199L87.7416 21.3939L91.9479 21.445Z" fill="white"/>
<path d="M94.3408 32.132C95.7948 34.1113 97.2564 34.3579 98.7522 33.2591C100.242 32.165 100.437 30.7013 98.9829 28.7219C97.5241 26.7362 96.0801 26.4866 94.5843 27.5854C93.0821 28.6889 92.882 30.1462 94.3408 32.132ZM95.3143 31.4168C94.4286 30.2112 94.5084 29.4279 95.4368 28.7459C96.3588 28.0686 97.1189 28.225 98.0093 29.4371C98.8997 30.6492 98.8152 31.426 97.8997 32.0986C96.9777 32.7758 96.2 32.6225 95.3143 31.4168Z" fill="white"/>
<path d="M108.252 53.7895L109.388 53.654L108.687 47.7757L103.126 48.439L103.827 54.3173L104.963 54.1818L104.433 49.7334L105.561 49.5988L106.091 54.0473L107.124 53.9241L106.593 49.4756L107.721 49.3411L108.252 53.7895Z" fill="white"/>
<path d="M108.37 72.3657L104.478 69.128L109.411 67.992L109.786 66.4199L103.671 67.9243L103.215 69.8388L107.996 73.9377L108.37 72.3657Z" fill="white"/>
<path d="M100.859 87.0921L101.835 87.6893L104.925 82.6398L100.149 79.7167L97.0584 84.7661L98.0341 85.3633L100.373 81.5421L101.342 82.135L99.0031 85.9563L99.8902 86.4991L102.229 82.6779L103.198 83.2709L100.859 87.0921Z" fill="white"/>
<path d="M91.9292 99.0505L89.1984 95.849L94.8386 96.5689L96.3237 95.3021L92.6895 91.0415L91.5939 91.976L94.3196 95.1715L88.6906 94.4525L87.1994 95.7244L90.8336 99.985L91.9292 99.0505Z" fill="white"/>
<path d="M76.6858 108.059L83.0225 105.38L82.552 104.267L80.0468 105.327L78.3361 101.281L77.0098 101.842L78.7205 105.887L76.2153 106.947L76.6858 108.059Z" fill="white"/>
<path d="M63.1047 109.366C63.2546 110.75 64.4157 110.994 66.3324 110.787C68.1777 110.587 69.4372 110.032 69.2365 108.179L67.8049 108.334C67.9005 109.217 67.3556 109.461 66.1228 109.594C64.89 109.728 64.5742 109.561 64.5243 109.1C64.3873 107.835 69.3267 107.823 69.0761 105.509L68.9977 104.785L62.7621 105.46L62.8922 106.661L67.1235 106.203C66.8933 107.346 62.8713 107.211 63.1047 109.366Z" fill="white"/>
<path d="M51.9367 105.028C49.7621 104.601 48.5195 105.409 48.1624 107.231C47.8069 109.044 48.654 110.254 50.8286 110.68C53.011 111.108 54.2428 110.314 54.5998 108.493C54.9585 106.663 54.1192 105.455 51.9367 105.028ZM51.7043 106.213C52.9447 106.456 53.3899 107.179 53.1867 108.216C52.9851 109.244 52.3014 109.738 51.061 109.495C49.8206 109.251 49.3754 108.528 49.5755 107.508C49.7771 106.479 50.4639 105.97 51.7043 106.213Z" fill="white"/>
<path d="M34.6382 103.178C33.9997 104.415 34.8332 105.26 36.5465 106.144C38.1957 106.995 39.5523 107.227 40.4073 105.571L39.1278 104.911C38.7205 105.7 38.1313 105.603 37.0295 105.034C35.9276 104.465 35.7563 104.152 35.9692 103.739C36.5526 102.609 40.6789 105.324 41.7467 103.255L42.0807 102.609L36.5074 99.7316L35.9533 100.805L39.7351 102.757C38.9123 103.584 35.6327 101.252 34.6382 103.178Z" fill="white"/>
<path d="M23.9811 95.0043C23.0041 95.9959 23.5493 97.0497 24.9226 98.4029C26.2447 99.7056 27.4712 100.33 28.7795 99.0023L27.7538 97.9917C27.1305 98.6242 26.5968 98.3566 25.7135 97.4863C24.8302 96.616 24.7598 96.2658 25.0854 95.9353C25.9782 95.0292 29.1121 98.8472 30.746 97.1889L31.257 96.6703L26.7894 92.2682L25.9415 93.1287L28.9731 96.1158C27.9419 96.6609 25.5027 93.4601 23.9811 95.0043Z" fill="white"/>
<path d="M17.2231 87.3794L17.7739 86.5361L16.6655 85.9043L17.5941 85.5244L17.1429 84.632L16.2865 85.1546L16.4347 83.8874L15.4291 83.8311L15.4455 85.1047L14.4225 84.3401L13.8753 85.1904L14.98 85.8152L14.0515 86.195L14.5135 87.0909L15.3626 86.5719L15.2108 87.832L16.2164 87.8883L16.2072 86.6111L17.2231 87.3794Z" fill="white"/>
<path d="M10.9911 73.2273L11.7644 72.582L10.8894 71.6536L11.8884 71.562L11.718 70.5766L10.7462 70.8259L11.2586 69.6575L10.3135 69.3095L9.95662 70.5322L9.20196 69.5017L8.42998 70.1548L9.30365 71.0754L8.30465 71.167L8.48432 72.1589L9.44817 71.911L8.93444 73.0715L9.87958 73.4195L10.2443 72.1955L10.9911 73.2273Z" fill="white"/>
<path d="M9.91999 46.3217L8.67593 50.1906L14.0071 51.9048L15.2512 48.0359C15.6944 46.6574 15.2308 45.1722 13.4182 44.5894C11.6056 44.0065 10.3632 44.9432 9.91999 46.3217ZM13.9346 48.184L13.2979 50.1641L10.2668 49.1895L10.9035 47.2093C11.2365 46.1736 11.6827 45.5439 12.9774 45.9602C14.2721 46.3765 14.2677 47.1482 13.9346 48.184Z" fill="white"/>
<path d="M19.1487 28.3501L17.8846 30.1311L17.9423 35.0673L15.5741 33.3865L14.7407 34.5608L19.3074 37.802L20.1408 36.6277L19.2666 36.0072L19.2379 33.8776L22.5624 33.2157L23.7154 31.5912L19.2144 32.5562L19.1487 28.3501Z" fill="white"/>
<path d="M29.7463 25.7012C31.6633 24.1659 31.8487 22.6953 30.6885 21.2466C29.5333 19.8042 28.0627 19.67 26.1457 21.2053C24.2225 22.7456 24.0333 24.1987 25.1935 25.6474C26.3587 27.1023 27.8231 27.2415 29.7463 25.7012ZM28.9912 24.7583C27.8235 25.6935 27.0376 25.6464 26.3175 24.7472C25.6024 23.8543 25.7269 23.0884 26.9008 22.1482C28.0748 21.208 28.8544 21.2601 29.5645 22.1468C30.2797 23.0397 30.1589 23.8232 28.9912 24.7583Z" fill="white"/>
<path d="M35.6684 16.3586L36.459 16.9827L37.1876 15.9354L37.4827 16.8942L38.4119 16.5247L37.9681 15.625L39.217 15.8861L39.3631 14.8896L38.0932 14.7919L38.9464 13.8414L38.1484 13.2203L37.4273 14.2646L37.1321 13.3058L36.1984 13.6857L36.6393 14.5779L35.3979 14.3139L35.2517 15.3104L36.5246 15.4155L35.6684 16.3586Z" fill="white"/>
<path d="M43.3896 13.8891L44.1801 14.5132L44.9088 13.4659L45.2039 14.4247L46.1331 14.0552L45.6893 13.1555L46.9381 13.4166L47.0843 12.4201L45.8144 12.3224L46.6676 11.3719L45.8696 10.7508L45.1484 11.7951L44.8533 10.8363L43.9196 11.2162L44.3604 12.1084L43.1191 11.8444L42.9729 12.8409L44.2458 12.946L43.3896 13.8891Z" fill="white"/>
<path d="M54.0206 65.6375C53.8739 65.6375 53.7332 65.5792 53.6295 65.4754C53.5257 65.3717 53.4675 65.231 53.4675 65.0843V52.9156C53.4675 52.8195 53.4925 52.725 53.5402 52.6415C53.5878 52.558 53.6564 52.4884 53.7391 52.4395C53.8219 52.3906 53.9159 52.3641 54.012 52.3626C54.1082 52.3611 54.203 52.3847 54.2872 52.431L65.3497 58.5154C65.4364 58.5632 65.5087 58.6333 65.5591 58.7185C65.6095 58.8038 65.636 58.901 65.636 59C65.636 59.099 65.6095 59.1961 65.5591 59.2814C65.5087 59.3666 65.4364 59.4367 65.3497 59.4845L54.2872 65.5689C54.2055 65.6138 54.1138 65.6374 54.0206 65.6375Z" fill="white"/>
<defs>
<filter id="filter0_b_1_478" x="-50" y="-50" width="218" height="218" filterUnits="userSpaceOnUse" color-interpolation-filters="sRGB">
<feFlood flood-opacity="0" result="BackgroundImageFix"/>
<feGaussianBlur in="BackgroundImageFix" stdDeviation="25"/>
<feComposite in2="SourceAlpha" operator="in" result="effect1_backgroundBlur_1_478"/>
<feBlend mode="normal" in="SourceGraphic" in2="effect1_backgroundBlur_1_478" result="shape"/>
</filter>
</defs>
</svg>
