<svg width="394" height="739" viewBox="0 0 394 739" fill="none" xmlns="http://www.w3.org/2000/svg">
<path d="M32.986 187.557C32.986 189.463 33.1766 191.464 33.4625 193.37C35.5591 205.092 44.1358 215.765 54.9044 220.054C60.3364 222.15 63.9577 221.769 67.3884 221.293C70.4379 220.911 73.3922 220.625 77.2994 222.245C92.547 228.63 101.886 254.933 95.12 272.563C92.8329 278.566 89.0209 282.092 85.6855 285.237C81.7783 288.954 77.9664 292.48 77.9664 299.151C77.8712 308.394 83.7796 320.116 92.7376 322.689C99.1225 324.5 104.459 321.069 109.605 317.734C114.847 314.398 120.374 310.872 127.235 312.302C136.956 314.398 142.578 325.071 144.103 328.216C148.296 337.174 146.485 344.703 144.675 352.041C143.055 358.711 141.435 365.668 144.389 373.483C147.819 382.631 154.776 385.681 161.447 388.635C167.26 391.208 172.692 393.59 175.646 399.785C180.983 410.935 172.787 422.942 162.591 438.094C152.298 453.247 140.577 470.495 138.29 492.509C136.003 514.618 143.817 538.061 161.542 562.267C161.733 562.553 162.209 562.648 162.495 562.457C162.781 562.267 162.876 561.79 162.686 561.505C145.151 537.585 137.432 514.428 139.719 492.7C142.006 470.972 153.537 453.914 163.734 438.952C173.836 424.086 182.603 411.22 176.885 399.213C173.74 392.447 167.737 389.874 162.019 387.301C155.634 384.442 149.058 381.583 145.723 373.006C142.959 365.573 144.484 359.188 146.104 352.422C147.915 344.893 149.821 337.079 145.437 327.645C143.912 324.309 138.004 313.159 127.616 310.872C120.183 309.252 114.465 312.969 108.938 316.495C103.792 319.735 98.9319 322.88 93.214 321.26C84.9232 318.877 79.3959 307.918 79.4912 299.151C79.5865 293.147 82.9219 289.907 86.8291 286.285C90.2598 283.045 94.167 279.329 96.5495 273.039C103.601 254.837 93.8811 227.582 77.9664 220.911C73.6781 219.101 70.4379 219.482 67.3884 219.863C64.053 220.244 60.6223 220.625 55.5715 218.624C45.2794 214.622 37.0838 204.33 35.0826 193.084C32.7001 179.933 39.1804 167.354 45.3747 160.493C50.1396 155.251 55.5715 152.297 59.7646 152.678C63.8624 152.964 65.8637 156.3 68.6273 160.779C71.8674 165.925 75.7746 172.405 84.7325 177.456C91.6893 181.363 96.8353 181.649 101.41 181.839C105.889 182.125 109.701 182.316 114.561 185.556C123.614 191.75 125.52 201.661 127.235 210.333C128.665 217.862 129.999 224.247 135.526 226.248C142.102 228.63 151.06 223.58 157.254 218.052C164.973 211.191 171.93 200.518 170.024 192.131C168.785 186.795 164.115 184.698 157.54 181.839C154.014 180.315 150.107 178.599 145.818 176.026C132 167.735 119.421 153.345 111.321 136.668C111.13 136.287 110.749 136.192 110.368 136.382C109.986 136.573 109.891 136.954 110.082 137.335C118.277 154.298 131.047 168.784 145.056 177.265C149.44 179.933 153.442 181.649 156.968 183.174C163.353 185.937 167.546 187.843 168.594 192.513C170.405 200.327 163.639 210.429 156.206 217.004C148.772 223.58 140.863 226.629 135.907 224.914C131.047 223.198 129.904 217.099 128.474 210.047C126.759 201.471 124.757 190.893 115.228 184.317C110.082 180.791 105.889 180.6 101.41 180.315C96.8353 180.029 92.0705 179.838 85.3996 176.026C76.8229 171.166 72.9157 164.876 69.7709 159.826C66.9119 155.156 64.6248 151.439 59.7646 151.058C54.9998 150.677 49.2819 153.727 44.1358 159.349C38.7039 165.639 32.986 176.121 32.986 187.557Z" fill="#232D43"/>
<path d="M47.8525 92.5458C47.8525 98.7401 51.2832 105.506 53.1891 108.746C61.2894 122.66 76.0605 127.234 100.552 134.858C104.173 136.001 107.509 137.05 110.558 137.907C110.844 138.003 111.13 137.907 111.321 137.717C111.511 137.526 111.511 137.24 111.416 136.954C103.125 119.801 100.552 102.171 104.459 88.448C106.937 79.6807 111.797 73.1051 116.085 67.292C121.422 60.0494 125.711 54.2362 122.566 47.6607C120.755 43.8488 117.515 42.0382 114.18 40.2275C110.463 38.2263 106.651 36.1297 103.601 31.0789C99.6943 24.5034 100.361 18.1185 100.933 12.8771C101.41 8.30284 101.886 4.39563 98.9319 2.01318C95.8824 -0.464539 89.8787 -0.655121 82.9219 1.44142C73.2016 4.39564 62.0518 12.0194 59.0023 22.2163C57.0963 28.6012 58.3352 35.5579 59.7647 43.7535C61.0035 50.5196 62.3377 58.1434 61.9565 66.6249C61.8612 69.6744 61.48 73.0098 59.4787 76.4406C57.7634 79.4901 55.7621 80.9195 53.8562 82.2537C52.3314 83.3973 50.902 84.4455 49.7584 86.1609C48.329 87.9715 47.8525 90.1634 47.8525 92.5458ZM109.415 136.097C106.746 135.334 103.983 134.477 101.028 133.524C74.8216 125.423 61.9565 120.944 54.428 108.079C52.522 104.744 46.5183 93.4035 50.8067 86.828C51.7597 85.3032 53.0938 84.4455 54.5233 83.3019C56.5245 81.8725 58.7164 80.2524 60.527 77.0123C62.6236 73.391 63.0048 69.865 63.1001 66.6249C63.4813 58.0481 62.0518 50.2337 60.9082 43.4676C59.4787 35.4626 58.2399 28.6012 60.1458 22.5975C63.1001 12.8771 73.7734 5.63448 83.1125 2.77556C89.4975 0.774307 95.12 0.96495 97.7883 3.06149C100.171 4.96745 99.7896 8.39813 99.3131 12.6865C98.7413 18.0232 97.9789 24.7893 102.172 31.746C105.412 37.178 109.605 39.4651 113.322 41.4664C116.657 43.277 119.516 44.8018 121.136 48.2325C123.9 54.0456 119.897 59.4776 114.847 66.4343C110.463 72.3428 105.603 79.0135 103.03 88.0668C99.2178 101.694 101.505 119.134 109.415 136.097Z" fill="#232D43"/>
<path d="M110.082 137.24C110.082 137.526 110.272 137.812 110.558 137.907C127.998 143.149 137.718 144.578 145.437 139.146C153.919 133.142 157.445 122.755 155.92 116.18C154.872 111.796 152.203 109.604 149.344 107.317C146.867 105.316 144.294 103.314 142.388 99.5978C137.242 89.5915 140.482 75.3922 146.771 68.3402C152.584 61.7647 163.353 58.6199 176.218 59.5728C193.181 60.907 208.715 68.8167 215.767 79.7759C223.867 92.3552 220.341 107.507 217.196 120.944C214.623 132.189 212.336 141.91 218.435 146.484C225.773 152.011 238.638 145.817 251.027 139.813C262.272 134.381 273.993 128.664 279.521 133.428C283.428 136.764 281.712 143.339 279.616 151.63C276.948 161.922 273.517 174.787 279.997 187.176C284.667 196.134 291.719 199.851 298.58 203.567C305.632 207.284 312.208 210.81 315.257 219.673C317.735 227.106 315.734 232.442 313.637 238.16C311.541 243.688 309.444 249.501 311.445 257.41C314.209 268.274 322.881 276.089 329.647 280.758C329.933 280.949 330.409 280.854 330.6 280.568C330.791 280.282 330.695 279.805 330.409 279.615C323.834 275.136 315.448 267.607 312.779 257.125C310.874 249.596 312.875 244.069 314.876 238.732C316.973 233.11 319.164 227.201 316.496 219.291C313.351 209.857 306.49 206.236 299.152 202.328C292.481 198.802 285.524 195.086 281.141 186.604C274.946 174.692 278.282 162.113 280.855 152.011C283.142 143.244 284.953 136.287 280.378 132.38C274.089 127.139 262.558 132.666 250.36 138.574C238.352 144.388 225.963 150.391 219.293 145.341C213.956 141.338 216.053 131.999 218.53 121.23C221.484 108.175 225.296 91.974 216.91 78.9182C209.572 67.5778 193.658 59.3822 176.313 58.048C162.972 56.9998 151.822 60.4305 145.628 67.2919C139.052 74.7251 135.621 89.6868 141.053 100.17C143.15 104.172 145.914 106.459 148.391 108.365C151.155 110.557 153.537 112.463 154.49 116.37C156.301 124.089 150.869 133.333 144.579 137.812C137.337 142.958 127.998 141.433 110.939 136.383C110.558 136.287 110.177 136.478 110.082 136.859C110.082 137.145 110.082 137.145 110.082 137.24Z" fill="#232D43"/>
<path d="M329.361 280.186C329.361 280.186 329.361 280.282 329.361 280.186C329.361 280.472 329.457 280.663 329.647 280.758C344.228 290.669 363.192 294.767 368.814 289.144C371.101 286.762 370.816 283.236 370.53 279.519C370.244 275.422 369.863 271.229 373.007 268.37C375.295 266.273 378.058 266.178 381.012 266.082C384.253 265.987 387.588 265.797 390.256 263.033C394.545 258.459 393.401 250.93 392.925 247.309C392.162 241.972 390.256 238.827 388.541 236.064C386.826 233.3 385.301 230.822 385.206 226.534C385.11 223.199 385.873 221.197 386.635 219.291C387.493 217.29 388.255 215.289 387.588 212.049C386.063 204.52 378.821 199.088 372.722 197.182C363.097 194.228 351.47 198.04 346.705 205.759C342.893 211.953 345.371 217.767 348.325 224.437C350.898 230.441 353.853 237.303 353.186 246.07C352.328 256.267 347.087 261.603 339.082 269.608C336.223 272.467 333.078 275.707 329.552 279.615C329.361 279.805 329.361 279.996 329.361 280.186ZM369.291 283.141C369.291 285.142 369.005 286.953 367.766 288.191C362.811 293.242 344.799 289.24 331.077 280.091C334.317 276.47 337.271 273.516 339.939 270.752C348.135 262.461 353.567 257.029 354.424 246.356C355.187 237.207 352.137 230.251 349.469 224.056C346.61 217.385 344.323 212.144 347.754 206.617C352.137 199.565 363.287 195.944 372.15 198.707C377.868 200.518 384.634 205.569 385.968 212.525C386.54 215.384 385.873 217.004 385.11 218.91C384.348 220.816 383.49 223.008 383.585 226.725C383.776 231.394 385.396 234.158 387.207 236.921C388.922 239.685 390.637 242.449 391.4 247.595C391.876 251.025 392.925 258.077 389.113 262.08C386.826 264.462 383.967 264.653 380.917 264.748C377.868 264.844 374.723 264.939 372.054 267.321C368.338 270.561 368.719 275.422 369.1 279.615C369.196 280.854 369.291 281.997 369.291 283.141Z" fill="#232D43"/>
<path d="M258.65 670.049C258.65 670.144 258.65 670.144 258.65 670.239C258.746 670.62 259.127 670.811 259.508 670.716C265.035 669 270.181 666.332 274.47 662.806C290.099 650.227 298.294 627.641 295.817 603.912C295.626 602.197 295.435 600.481 295.245 598.861C294.482 593.144 293.72 587.33 294.864 581.708C297.151 570.558 304.965 566.174 313.351 561.409C320.213 557.502 327.265 553.595 331.458 545.59C337.843 533.583 333.173 522.338 328.313 510.521C323.453 498.513 318.307 486.22 323.072 471.353C326.979 459.346 335.27 454.009 343.275 448.863C351.28 443.717 358.903 438.952 360.524 427.898C364.24 401.977 330.695 373.578 326.883 370.433C320.689 365.383 315.543 362.428 311.445 360.046C305.537 356.615 301.534 354.328 299.247 348.324C293.815 334.03 304.679 317.067 315.257 300.58C319.927 293.242 324.882 286.667 330.409 280.473C330.695 280.187 330.6 279.71 330.314 279.424C330.028 279.138 329.552 279.234 329.266 279.52C323.739 285.809 318.688 292.385 314.018 299.723C303.25 316.495 292.1 333.839 297.818 348.706C300.295 355.09 304.393 357.473 310.588 361.094C314.685 363.477 319.736 366.336 325.835 371.386C329.647 374.531 362.62 402.453 358.999 427.612C357.474 437.999 350.517 442.383 342.417 447.529C334.507 452.58 325.645 458.202 321.642 470.782C316.687 486.124 322.119 499.276 326.883 510.902C331.648 522.528 336.127 533.392 330.124 544.828C326.121 552.452 319.26 556.263 312.589 560.075C304.393 564.745 295.817 569.51 293.434 581.327C292.195 587.14 293.053 593.144 293.815 598.957C294.006 600.577 294.292 602.292 294.387 604.007C296.769 627.26 288.86 649.274 273.517 661.662C269.419 664.998 264.368 667.666 259.032 669.286C258.841 669.477 258.65 669.763 258.65 670.049Z" fill="#232D43"/>
<path d="M180.983 259.697C180.983 259.793 180.983 259.793 180.983 259.888C180.983 279.043 188.702 296.863 197.279 314.875L198.613 317.638C206.332 333.934 214.337 350.707 216.148 368.622C218.53 392.447 209.858 415.604 201.377 437.999C194.611 455.915 187.654 474.403 186.129 493.462C184.414 514.714 189.56 535.774 194.515 556.168C198.137 571.034 201.758 586.377 202.902 601.625C203.187 605.532 203.283 609.63 203.473 613.537C204.045 630.214 204.617 647.463 215.29 660.042C225.106 671.573 242.926 675.862 259.699 670.716C260.08 670.62 260.271 670.239 260.175 669.858L246.357 615.538C242.545 600.577 238.257 583.709 242.545 567.699C246.167 554.071 255.506 543.017 264.559 532.248C269.61 526.34 274.756 520.145 278.949 513.57C294.196 489.841 297.341 458.774 287.144 432.472C283.142 422.18 277.234 412.555 271.516 403.215C262.844 389.111 253.886 374.436 251.98 357.949C249.978 340.605 256.077 323.166 261.891 306.298C268.561 287.048 275.518 267.131 270.182 247.499C265.798 231.489 252.742 217.767 236.923 212.716C227.488 209.666 217.768 209.666 209.382 212.716C189.846 219.958 180.983 242.067 180.983 259.697ZM217.959 376.818C217.959 374.054 217.863 371.291 217.577 368.527C215.767 350.325 207.666 333.458 199.947 317.067L198.613 314.303C190.132 296.387 182.508 278.757 182.508 259.888C182.508 259.793 182.508 259.793 182.508 259.697C182.508 242.639 191.085 221.102 209.858 214.241C217.959 211.286 227.393 211.286 236.446 214.241C251.789 219.196 264.464 232.442 268.752 248.071C273.993 267.226 267.418 286.095 260.461 306.012C254.553 322.975 248.454 340.605 250.455 358.235C252.361 375.103 261.509 389.779 270.277 404.073C275.995 413.317 281.903 422.942 285.81 433.044C295.912 458.964 292.767 489.46 277.71 512.808C273.517 519.288 268.371 525.387 263.415 531.295C254.267 542.159 244.832 553.404 241.116 567.318C236.827 583.614 241.116 600.767 244.928 615.824L258.555 669.477C242.545 674.242 225.678 670.048 216.338 659.089C206.046 646.891 205.379 629.928 204.807 613.537C204.712 609.63 204.522 605.532 204.236 601.53C203.092 586.091 199.375 570.653 195.849 555.787C190.989 535.488 185.843 514.523 187.559 493.462C189.083 474.593 196.04 456.201 202.711 438.38C210.144 418.558 217.959 397.974 217.959 376.818Z" fill="#232D43"/>
<path d="M-73.1754 629.166C-73.1754 629.357 -73.0801 629.547 -72.9848 629.642C-62.0255 642.031 -50.4945 648.988 -39.3447 649.75C-35.8187 650.036 -32.388 649.56 -29.0526 649.178C-22.763 648.416 -17.4263 647.844 -12.9474 651.751C-8.27777 655.849 -8.46835 661.853 -8.75424 668.143C-8.94482 673.956 -9.23074 679.959 -5.80005 685.296C0.5849 695.398 19.6444 701.306 40.5145 699.781C60.3364 698.257 75.2028 690.633 80.063 679.388C87.4962 662.425 72.5345 638.314 59.6693 626.593C51.9502 619.636 45.7559 617.349 39.6569 615.252C33.7484 613.156 28.2212 611.155 21.9315 604.77C8.58988 591.333 3.34854 569.986 5.06391 555.882C5.82627 549.688 7.82752 545.304 10.7817 543.493C15.5466 540.539 22.3127 544.923 29.3647 549.402C37.3697 554.548 46.423 560.361 54.428 556.645C69.2944 549.783 67.7696 515.667 63.2906 495.749C57.5728 470.305 48.9007 455.725 38.8945 454.676C30.3177 453.723 23.5516 462.491 17.0714 470.972C11.0676 478.786 5.34976 486.124 -0.939877 484.79C-8.08719 483.265 -12.9474 470.877 -12.3755 460.871C-11.4226 441.335 10.4958 427.993 23.2657 423.228C36.7026 418.177 47.5666 419.13 56.3339 419.988C64.7201 420.75 71.3909 421.322 76.0605 415.985C81.8737 409.219 79.3006 399.023 76.9182 389.207C74.3452 379.105 71.9627 369.671 77.7759 363.477C84.3514 356.52 98.2648 357.187 106.365 362.428C119.611 371.1 117.896 393.209 116.943 405.122C115.228 426.754 110.749 436.284 102.553 453.533C100.647 457.63 98.3601 462.3 95.9777 467.541C83.6843 494.606 81.8736 515.762 90.4504 532.344C96.6447 544.256 108.08 552.737 119.135 560.933C132.858 571.13 145.818 580.755 149.249 596.479C151.25 605.627 149.344 615.062 147.438 624.21C146.771 627.641 146.009 631.167 145.532 634.598C142.673 654.324 146.867 675.29 157.54 693.778C168.213 712.265 184.128 726.465 202.616 733.898C220.341 741.045 243.784 741.426 256.459 726.369C268.561 711.979 265.417 691.014 260.175 670.525L260.08 669.953C259.985 669.572 259.603 669.381 259.222 669.477C258.841 669.572 258.65 669.953 258.746 670.334L258.841 670.906C263.987 691.014 267.037 711.598 255.41 725.512C243.212 739.997 220.341 739.52 203.187 732.659C184.986 725.321 169.261 711.312 158.779 693.206C148.296 675.099 144.103 654.324 146.962 634.979C147.438 631.548 148.201 628.022 148.868 624.687C150.774 615.348 152.68 605.723 150.678 596.288C147.152 580.088 133.334 569.891 119.993 559.98C109.129 551.88 97.7883 543.493 91.7846 531.867C83.3984 515.762 85.2091 494.987 97.3118 468.399C99.6943 463.062 101.886 458.488 103.887 454.39C112.178 436.951 116.753 427.421 118.468 405.503C119.421 393.305 121.232 370.624 107.318 361.475C98.8366 355.853 84.0655 355.281 76.9182 362.714C70.5333 369.385 73.2016 379.772 75.6793 389.779C78.0617 399.213 80.5395 409.029 75.2028 415.223C71.0097 420.083 65.006 419.511 56.7151 418.749C47.7571 417.987 36.7026 416.938 22.9798 422.085C9.92406 427.04 -12.5662 440.763 -13.6144 461.061C-14.2815 474.212 -7.51541 484.981 -1.03515 486.41C6.11216 487.935 12.1159 480.216 18.4055 472.02C24.6952 463.92 31.2707 455.439 38.9898 456.296C48.3289 457.345 56.5245 471.544 62.1471 496.321C66.8167 517.287 67.4837 549.497 54.1421 555.692C46.8042 559.027 38.418 553.69 30.413 548.544C22.8845 543.779 15.8325 539.205 10.3053 542.541C6.96985 544.542 4.68268 549.402 3.92032 555.977C2.20496 570.463 7.54163 592.286 21.1692 606.009C27.7447 612.584 33.4625 614.681 39.4663 616.873C45.3747 618.969 51.4737 621.161 59.0022 627.927C71.5815 639.363 86.162 662.806 79.11 679.102C74.4404 689.87 60.0505 697.208 40.7051 698.638C20.3115 700.163 1.82376 694.54 -4.27527 684.82C-7.4201 679.864 -7.22949 674.051 -6.9436 668.429C-6.65771 661.758 -6.4671 655.468 -11.6132 650.894C-16.4733 646.51 -22.4771 647.272 -28.862 648.035C-32.1021 648.416 -35.4375 648.797 -38.8683 648.607C-49.5416 647.844 -60.7867 641.078 -71.46 628.975C-71.7459 628.689 -72.1271 628.689 -72.5083 628.88C-73.0801 628.785 -73.1754 628.975 -73.1754 629.166Z" fill="#232D43"/>
<path d="M-73.1752 629.166C-73.1752 629.356 -73.08 629.547 -72.9847 629.642C-72.6988 629.928 -72.2223 629.928 -71.9364 629.642C-52.0192 609.916 -42.9659 584.09 -49.2556 565.316C-51.638 558.169 -55.6405 553.5 -59.1665 549.402C-63.169 544.828 -66.3138 541.111 -65.1703 535.87C-63.9314 529.866 -58.4994 527.674 -52.2098 525.196C-46.3966 522.909 -39.9164 520.241 -36.2951 513.951C-29.9102 502.706 -38.0105 489.65 -47.3496 474.593C-57.2605 458.679 -68.4104 440.572 -63.7408 421.227C-61.3584 411.316 -56.0217 405.979 -50.4945 400.261C-44.1095 393.781 -37.4387 387.11 -35.4374 373.197C-33.5315 360.332 -36.9622 350.039 -39.4399 342.511C-41.5365 336.221 -42.9659 331.647 -40.3929 328.979C-35.628 324.214 -22.9535 330.885 -9.61184 337.937C6.77933 346.609 23.8376 355.567 33.1768 348.134C38.8946 343.655 41.277 333.553 39.8476 319.735C38.6087 307.156 34.225 293.147 28.2213 282.188C26.5059 279.043 24.6 276.089 22.5034 273.325C22.3128 273.039 21.8363 272.944 21.5505 273.134C21.2646 273.325 21.1693 273.801 21.3598 274.087C23.3611 276.851 25.2671 279.71 26.8871 282.855C38.7993 304.392 43.8501 337.841 32.2238 346.895C23.5517 353.756 6.30285 344.607 -9.04005 336.507C-23.43 328.883 -35.9139 322.308 -41.4412 327.835C-44.6813 331.075 -43.0612 336.031 -40.8694 342.797C-38.487 350.23 -35.1515 360.332 -36.9622 372.816C-38.9634 386.253 -45.3484 392.733 -51.638 399.022C-57.1652 404.55 -62.7878 410.363 -65.2656 420.655C-70.0304 440.572 -58.69 458.869 -48.6838 475.07C-39.6305 489.746 -31.7208 502.42 -37.6293 512.903C-40.9647 518.811 -46.9684 521.194 -52.7816 523.576C-59.1665 526.149 -65.2656 528.532 -66.695 535.298C-67.9339 541.206 -64.4079 545.304 -60.4054 550.069C-56.9747 554.071 -53.0675 558.646 -50.7803 565.507C-44.6813 583.804 -53.6393 609.058 -73.1752 628.403C-73.0799 628.785 -73.1752 628.975 -73.1752 629.166Z" fill="#232D43"/>
</svg>
